<mxfile host="app.diagrams.net" modified="2021-10-15T12:56:44.888Z" agent="5.0 (Windows NT 10.0; Win64; x64) AppleWebKit/537.36 (KHTML, like Gecko) Chrome/92.0.4515.159 Safari/537.36" etag="KhYsVqDPLYG_nh2ZibKe" version="15.5.2" type="github">
  <diagram id="6a731a19-8d31-9384-78a2-239565b7b9f0" name="Page-1">
    <mxGraphModel dx="1718" dy="962" grid="1" gridSize="10" guides="1" tooltips="1" connect="1" arrows="1" fold="1" page="1" pageScale="1" pageWidth="1169" pageHeight="827" background="none" math="0" shadow="0">
      <root>
        <mxCell id="0" />
        <mxCell id="1" parent="0" />
        <mxCell id="rc-ZLAlKZeYa88pn8oui-57" value="" style="edgeStyle=orthogonalEdgeStyle;rounded=0;orthogonalLoop=1;jettySize=auto;html=1;" edge="1" parent="1" source="2" target="rc-ZLAlKZeYa88pn8oui-56">
          <mxGeometry relative="1" as="geometry" />
        </mxCell>
        <mxCell id="2" value="START" style="shape=mxgraph.flowchart.terminator;strokeWidth=2;gradientColor=none;gradientDirection=north;fontStyle=0;html=1;" parent="1" vertex="1">
          <mxGeometry x="489" y="60" width="120" height="30" as="geometry" />
        </mxCell>
        <mxCell id="14" value="No" style="text;fontStyle=0;html=1;strokeColor=none;gradientColor=none;fillColor=none;strokeWidth=2;align=center;" parent="1" vertex="1">
          <mxGeometry x="470" y="690" width="40" height="30" as="geometry" />
        </mxCell>
        <mxCell id="45" value="" style="edgeStyle=elbowEdgeStyle;elbow=horizontal;exitX=1;exitY=0.5;exitPerimeter=0;entryX=0.905;entryY=0.5;entryPerimeter=0;fontStyle=1;strokeColor=#003366;strokeWidth=1;html=1;" parent="1" target="34" edge="1">
          <mxGeometry width="100" height="100" as="geometry">
            <mxPoint x="380.5" y="1119.2499999999998" as="sourcePoint" />
            <mxPoint x="100" as="targetPoint" />
            <Array as="points">
              <mxPoint x="950" y="1320" />
            </Array>
          </mxGeometry>
        </mxCell>
        <mxCell id="rc-ZLAlKZeYa88pn8oui-55" value="Yes" style="text;html=1;align=center;verticalAlign=middle;resizable=0;points=[];autosize=1;strokeColor=none;fillColor=none;" vertex="1" parent="1">
          <mxGeometry x="610" y="693" width="30" height="20" as="geometry" />
        </mxCell>
        <mxCell id="rc-ZLAlKZeYa88pn8oui-59" value="" style="edgeStyle=orthogonalEdgeStyle;rounded=0;orthogonalLoop=1;jettySize=auto;html=1;" edge="1" parent="1" source="rc-ZLAlKZeYa88pn8oui-56" target="rc-ZLAlKZeYa88pn8oui-58">
          <mxGeometry relative="1" as="geometry" />
        </mxCell>
        <mxCell id="rc-ZLAlKZeYa88pn8oui-56" value="Declare &quot;RandNum&quot;" style="rounded=0;whiteSpace=wrap;html=1;" vertex="1" parent="1">
          <mxGeometry x="489" y="120" width="120" height="60" as="geometry" />
        </mxCell>
        <mxCell id="rc-ZLAlKZeYa88pn8oui-61" value="" style="edgeStyle=orthogonalEdgeStyle;rounded=0;orthogonalLoop=1;jettySize=auto;html=1;" edge="1" parent="1" source="rc-ZLAlKZeYa88pn8oui-58" target="rc-ZLAlKZeYa88pn8oui-60">
          <mxGeometry relative="1" as="geometry" />
        </mxCell>
        <mxCell id="rc-ZLAlKZeYa88pn8oui-58" value="Generate Random Number&lt;br&gt;1-10" style="rounded=0;whiteSpace=wrap;html=1;" vertex="1" parent="1">
          <mxGeometry x="489" y="210" width="120" height="60" as="geometry" />
        </mxCell>
        <mxCell id="rc-ZLAlKZeYa88pn8oui-80" value="" style="edgeStyle=orthogonalEdgeStyle;rounded=0;orthogonalLoop=1;jettySize=auto;html=1;" edge="1" parent="1" source="rc-ZLAlKZeYa88pn8oui-60" target="rc-ZLAlKZeYa88pn8oui-79">
          <mxGeometry relative="1" as="geometry" />
        </mxCell>
        <mxCell id="rc-ZLAlKZeYa88pn8oui-60" value="Assign number to &quot;RandNum&quot;" style="rounded=0;whiteSpace=wrap;html=1;" vertex="1" parent="1">
          <mxGeometry x="489" y="300" width="120" height="60" as="geometry" />
        </mxCell>
        <mxCell id="rc-ZLAlKZeYa88pn8oui-70" value="" style="edgeStyle=orthogonalEdgeStyle;rounded=0;orthogonalLoop=1;jettySize=auto;html=1;" edge="1" parent="1" source="rc-ZLAlKZeYa88pn8oui-65" target="rc-ZLAlKZeYa88pn8oui-69">
          <mxGeometry relative="1" as="geometry" />
        </mxCell>
        <mxCell id="rc-ZLAlKZeYa88pn8oui-72" value="" style="edgeStyle=orthogonalEdgeStyle;rounded=0;orthogonalLoop=1;jettySize=auto;html=1;" edge="1" parent="1" source="rc-ZLAlKZeYa88pn8oui-65" target="rc-ZLAlKZeYa88pn8oui-71">
          <mxGeometry relative="1" as="geometry" />
        </mxCell>
        <mxCell id="rc-ZLAlKZeYa88pn8oui-65" value="Check if guess is correct" style="rhombus;whiteSpace=wrap;html=1;" vertex="1" parent="1">
          <mxGeometry x="492.5" y="675" width="115" height="100" as="geometry" />
        </mxCell>
        <mxCell id="rc-ZLAlKZeYa88pn8oui-74" value="" style="edgeStyle=orthogonalEdgeStyle;rounded=0;orthogonalLoop=1;jettySize=auto;html=1;" edge="1" parent="1" source="rc-ZLAlKZeYa88pn8oui-69" target="rc-ZLAlKZeYa88pn8oui-73">
          <mxGeometry relative="1" as="geometry" />
        </mxCell>
        <mxCell id="rc-ZLAlKZeYa88pn8oui-69" value="Output &quot;Correct!&quot;" style="shape=parallelogram;perimeter=parallelogramPerimeter;whiteSpace=wrap;html=1;fixedSize=1;" vertex="1" parent="1">
          <mxGeometry x="651" y="695" width="120" height="60" as="geometry" />
        </mxCell>
        <mxCell id="rc-ZLAlKZeYa88pn8oui-75" value="" style="edgeStyle=orthogonalEdgeStyle;rounded=0;orthogonalLoop=1;jettySize=auto;html=1;" edge="1" parent="1" source="rc-ZLAlKZeYa88pn8oui-71" target="rc-ZLAlKZeYa88pn8oui-73">
          <mxGeometry relative="1" as="geometry" />
        </mxCell>
        <mxCell id="rc-ZLAlKZeYa88pn8oui-71" value="Output &quot;Incorrect!&quot;" style="shape=parallelogram;perimeter=parallelogramPerimeter;whiteSpace=wrap;html=1;fixedSize=1;" vertex="1" parent="1">
          <mxGeometry x="350" y="790" width="120" height="60" as="geometry" />
        </mxCell>
        <mxCell id="rc-ZLAlKZeYa88pn8oui-73" value="END" style="shape=mxgraph.flowchart.terminator;strokeWidth=2;gradientColor=none;gradientDirection=north;fontStyle=0;html=1;" vertex="1" parent="1">
          <mxGeometry x="651" y="805" width="120" height="30" as="geometry" />
        </mxCell>
        <mxCell id="rc-ZLAlKZeYa88pn8oui-86" value="" style="edgeStyle=orthogonalEdgeStyle;rounded=0;orthogonalLoop=1;jettySize=auto;html=1;" edge="1" parent="1" source="rc-ZLAlKZeYa88pn8oui-76" target="rc-ZLAlKZeYa88pn8oui-65">
          <mxGeometry relative="1" as="geometry" />
        </mxCell>
        <mxCell id="rc-ZLAlKZeYa88pn8oui-76" value="Input guess" style="shape=parallelogram;perimeter=parallelogramPerimeter;whiteSpace=wrap;html=1;fixedSize=1;" vertex="1" parent="1">
          <mxGeometry x="490" y="580" width="120" height="60" as="geometry" />
        </mxCell>
        <mxCell id="rc-ZLAlKZeYa88pn8oui-83" value="" style="edgeStyle=orthogonalEdgeStyle;rounded=0;orthogonalLoop=1;jettySize=auto;html=1;" edge="1" parent="1" source="rc-ZLAlKZeYa88pn8oui-79" target="rc-ZLAlKZeYa88pn8oui-82">
          <mxGeometry relative="1" as="geometry" />
        </mxCell>
        <mxCell id="rc-ZLAlKZeYa88pn8oui-79" value="Declare &quot;Guess&quot;" style="whiteSpace=wrap;html=1;" vertex="1" parent="1">
          <mxGeometry x="489" y="400" width="120" height="60" as="geometry" />
        </mxCell>
        <mxCell id="rc-ZLAlKZeYa88pn8oui-85" value="" style="edgeStyle=orthogonalEdgeStyle;rounded=0;orthogonalLoop=1;jettySize=auto;html=1;" edge="1" parent="1" source="rc-ZLAlKZeYa88pn8oui-82" target="rc-ZLAlKZeYa88pn8oui-76">
          <mxGeometry relative="1" as="geometry" />
        </mxCell>
        <mxCell id="rc-ZLAlKZeYa88pn8oui-82" value="Output &quot;Guess a number between 1-10&quot;" style="shape=parallelogram;perimeter=parallelogramPerimeter;whiteSpace=wrap;html=1;fixedSize=1;" vertex="1" parent="1">
          <mxGeometry x="466" y="490" width="166" height="60" as="geometry" />
        </mxCell>
      </root>
    </mxGraphModel>
  </diagram>
</mxfile>
